<?xml version="1.0" encoding="UTF-8"?>
<svg width="700pt" height="700pt" version="1.1" viewBox="0 0 700 700" xmlns="http://www.w3.org/2000/svg" xmlns:xlink="http://www.w3.org/1999/xlink">
 <defs>
  <symbol id="u" overflow="visible">
   <path d="m18.766-1.125c-0.96875 0.5-1.9805 0.875-3.0312 1.125-1.043 0.25781-2.1367 0.39062-3.2812 0.39062-3.3984 0-6.0898-0.94531-8.0781-2.8438-1.9922-1.9062-2.9844-4.4844-2.9844-7.7344 0-3.2578 0.99219-5.8359 2.9844-7.7344 1.9883-1.9062 4.6797-2.8594 8.0781-2.8594 1.1445 0 2.2383 0.13281 3.2812 0.39062 1.0508 0.25 2.0625 0.625 3.0312 1.125v4.2188c-0.98047-0.65625-1.9453-1.1406-2.8906-1.4531-0.94922-0.3125-1.9492-0.46875-3-0.46875-1.875 0-3.3516 0.60547-4.4219 1.8125-1.0742 1.1992-1.6094 2.8555-1.6094 4.9688 0 2.1055 0.53516 3.7617 1.6094 4.9688 1.0703 1.1992 2.5469 1.7969 4.4219 1.7969 1.0508 0 2.0508-0.14844 3-0.45312 0.94531-0.3125 1.9102-0.80078 2.8906-1.4688z"/>
  </symbol>
  <symbol id="c" overflow="visible">
   <path d="m13.734-11.141c-0.4375-0.19531-0.87109-0.34375-1.2969-0.4375-0.41797-0.10156-0.83984-0.15625-1.2656-0.15625-1.2617 0-2.2305 0.40625-2.9062 1.2188-0.67969 0.80469-1.0156 1.9531-1.0156 3.4531v7.0625h-4.8906v-15.312h4.8906v2.5156c0.625-1 1.3438-1.7266 2.1562-2.1875 0.82031-0.46875 1.8008-0.70312 2.9375-0.70312 0.16406 0 0.34375 0.011719 0.53125 0.03125 0.19531 0.011719 0.47656 0.039062 0.84375 0.078125z"/>
  </symbol>
  <symbol id="a" overflow="visible">
   <path d="m17.641-7.7031v1.4062h-11.453c0.125 1.1484 0.53906 2.0078 1.25 2.5781 0.70703 0.57422 1.7031 0.85938 2.9844 0.85938 1.0312 0 2.082-0.14844 3.1562-0.45312 1.082-0.3125 2.1914-0.77344 3.3281-1.3906v3.7656c-1.1562 0.4375-2.3125 0.76562-3.4688 0.98438-1.1562 0.22656-2.3125 0.34375-3.4688 0.34375-2.7734 0-4.9297-0.70312-6.4688-2.1094-1.5312-1.4062-2.2969-3.3789-2.2969-5.9219 0-2.5 0.75391-4.4609 2.2656-5.8906 1.5078-1.4375 3.582-2.1562 6.2188-2.1562 2.4062 0 4.332 0.73047 5.7812 2.1875 1.4453 1.4492 2.1719 3.3828 2.1719 5.7969zm-5.0312-1.625c0-0.92578-0.27344-1.6719-0.8125-2.2344-0.54297-0.57031-1.25-0.85938-2.125-0.85938-0.94922 0-1.7188 0.26562-2.3125 0.79688s-0.96484 1.2969-1.1094 2.2969z"/>
  </symbol>
  <symbol id="j" overflow="visible">
   <path d="m9.2188-6.8906c-1.0234 0-1.793 0.17188-2.3125 0.51562-0.51172 0.34375-0.76562 0.85547-0.76562 1.5312 0 0.625 0.20703 1.1172 0.625 1.4688 0.41406 0.34375 0.98828 0.51562 1.7188 0.51562 0.92578 0 1.7031-0.32812 2.3281-0.98438 0.63281-0.66406 0.95312-1.4922 0.95312-2.4844v-0.5625zm7.4688-1.8438v8.7344h-4.9219v-2.2656c-0.65625 0.92969-1.3984 1.6055-2.2188 2.0312-0.82422 0.41406-1.8242 0.625-3 0.625-1.5859 0-2.8711-0.45703-3.8594-1.375-0.99219-0.92578-1.4844-2.1289-1.4844-3.6094 0-1.7891 0.61328-3.1016 1.8438-3.9375 1.2383-0.84375 3.1797-1.2656 5.8281-1.2656h2.8906v-0.39062c0-0.76953-0.30859-1.332-0.92188-1.6875-0.61719-0.36328-1.5703-0.54688-2.8594-0.54688-1.0547 0-2.0312 0.10547-2.9375 0.3125-0.89844 0.21094-1.7305 0.52344-2.5 0.9375v-3.7344c1.0391-0.25 2.0859-0.44141 3.1406-0.57812 1.0625-0.13281 2.125-0.20312 3.1875-0.20312 2.7578 0 4.75 0.54688 5.9688 1.6406 1.2266 1.0859 1.8438 2.8555 1.8438 5.3125z"/>
  </symbol>
  <symbol id="b" overflow="visible">
   <path d="m7.7031-19.656v4.3438h5.0469v3.5h-5.0469v6.5c0 0.71094 0.14062 1.1875 0.42188 1.4375s0.83594 0.375 1.6719 0.375h2.5156v3.5h-4.1875c-1.9375 0-3.3125-0.39844-4.125-1.2031-0.80469-0.8125-1.2031-2.1797-1.2031-4.1094v-6.5h-2.4219v-3.5h2.4219v-4.3438z"/>
  </symbol>
  <symbol id="i" overflow="visible">
   <path d="m12.766-13.078v-8.2031h4.9219v21.281h-4.9219v-2.2188c-0.66797 0.90625-1.4062 1.5703-2.2188 1.9844s-1.7578 0.625-2.8281 0.625c-1.8867 0-3.4336-0.75-4.6406-2.25-1.2109-1.5-1.8125-3.4258-1.8125-5.7812 0-2.3633 0.60156-4.2969 1.8125-5.7969 1.207-1.5 2.7539-2.25 4.6406-2.25 1.0625 0 2 0.21484 2.8125 0.64062 0.82031 0.42969 1.5664 1.0859 2.2344 1.9688zm-3.2188 9.9219c1.0391 0 1.8359-0.37891 2.3906-1.1406 0.55078-0.76953 0.82812-1.8828 0.82812-3.3438 0-1.457-0.27734-2.5664-0.82812-3.3281-0.55469-0.76953-1.3516-1.1562-2.3906-1.1562-1.043 0-1.8398 0.38672-2.3906 1.1562-0.55469 0.76172-0.82812 1.8711-0.82812 3.3281 0 1.4609 0.27344 2.5742 0.82812 3.3438 0.55078 0.76172 1.3477 1.1406 2.3906 1.1406z"/>
  </symbol>
  <symbol id="h" overflow="visible">
   <path d="m10.5-3.1562c1.0508 0 1.8516-0.37891 2.4062-1.1406 0.55078-0.76953 0.82812-1.8828 0.82812-3.3438 0-1.457-0.27734-2.5664-0.82812-3.3281-0.55469-0.76953-1.3555-1.1562-2.4062-1.1562-1.0547 0-1.8594 0.38672-2.4219 1.1562-0.55469 0.77344-0.82812 1.8828-0.82812 3.3281 0 1.4492 0.27344 2.5586 0.82812 3.3281 0.5625 0.77344 1.3672 1.1562 2.4219 1.1562zm-3.25-9.9219c0.67578-0.88281 1.4219-1.5391 2.2344-1.9688 0.82031-0.42578 1.7656-0.64062 2.8281-0.64062 1.8945 0 3.4453 0.75 4.6562 2.25 1.207 1.5 1.8125 3.4336 1.8125 5.7969 0 2.3555-0.60547 4.2812-1.8125 5.7812-1.2109 1.5-2.7617 2.25-4.6562 2.25-1.0625 0-2.0078-0.21094-2.8281-0.625-0.8125-0.42578-1.5586-1.0859-2.2344-1.9844v2.2188h-4.8906v-21.281h4.8906z"/>
  </symbol>
  <symbol id="g" overflow="visible">
   <path d="m0.34375-15.312h4.8906l4.125 10.391 3.5-10.391h4.8906l-6.4375 16.766c-0.64844 1.6953-1.4023 2.8828-2.2656 3.5625-0.86719 0.6875-2 1.0312-3.4062 1.0312h-2.8438v-3.2188h1.5312c0.83203 0 1.4375-0.13672 1.8125-0.40625 0.38281-0.26172 0.67969-0.73047 0.89062-1.4062l0.14062-0.42188z"/>
  </symbol>
  <symbol id="f" overflow="visible">
   <path d="m2.5781-20.406h5.25v7.4375l7.5938-7.4375h6.1094l-9.8281 9.6562 10.844 10.75h-6.5938l-8.125-8.0469v8.0469h-5.25z"/>
  </symbol>
  <symbol id="t" overflow="visible">
   <path d="m0.42188-15.312h4.8906l3.8281 10.578 3.7969-10.578h4.9062l-6.0312 15.312h-5.375z"/>
  </symbol>
  <symbol id="s" overflow="visible">
   <path d="m2.3594-15.312h4.8906v15.312h-4.8906zm0-5.9688h4.8906v4h-4.8906z"/>
  </symbol>
  <symbol id="e" overflow="visible">
   <path d="m17.75-9.3281v9.3281h-4.9219v-7.1406c0-1.3203-0.03125-2.2344-0.09375-2.7344s-0.16797-0.86719-0.3125-1.1094c-0.1875-0.3125-0.44922-0.55469-0.78125-0.73438-0.32422-0.17578-0.69531-0.26562-1.1094-0.26562-1.0234 0-1.8242 0.39844-2.4062 1.1875-0.58594 0.78125-0.875 1.8711-0.875 3.2656v7.5312h-4.8906v-15.312h4.8906v2.2344c0.73828-0.88281 1.5195-1.5391 2.3438-1.9688 0.83203-0.42578 1.75-0.64062 2.75-0.64062 1.7695 0 3.1133 0.54688 4.0312 1.6406 0.91406 1.0859 1.375 2.6562 1.375 4.7188z"/>
  </symbol>
  <symbol id="r" overflow="visible">
   <path d="m12.422-21.281v3.2188h-2.7031c-0.6875 0-1.1719 0.125-1.4531 0.375-0.27344 0.25-0.40625 0.6875-0.40625 1.3125v1.0625h4.1875v3.5h-4.1875v11.812h-4.8906v-11.812h-2.4375v-3.5h2.4375v-1.0625c0-1.6641 0.46094-2.8984 1.3906-3.7031 0.92578-0.80078 2.3672-1.2031 4.3281-1.2031z"/>
  </symbol>
  <symbol id="d" overflow="visible">
   <path d="m9.6406-12.188c-1.0859 0-1.9141 0.39062-2.4844 1.1719-0.57422 0.78125-0.85938 1.9062-0.85938 3.375s0.28516 2.5938 0.85938 3.375c0.57031 0.77344 1.3984 1.1562 2.4844 1.1562 1.0625 0 1.875-0.38281 2.4375-1.1562 0.57031-0.78125 0.85938-1.9062 0.85938-3.375s-0.28906-2.5938-0.85938-3.375c-0.5625-0.78125-1.375-1.1719-2.4375-1.1719zm0-3.5c2.6328 0 4.6914 0.71484 6.1719 2.1406 1.4766 1.418 2.2188 3.3867 2.2188 5.9062 0 2.5117-0.74219 4.4805-2.2188 5.9062-1.4805 1.418-3.5391 2.125-6.1719 2.125-2.6484 0-4.7148-0.70703-6.2031-2.125-1.4922-1.4258-2.2344-3.3945-2.2344-5.9062 0-2.5195 0.74219-4.4883 2.2344-5.9062 1.4883-1.4258 3.5547-2.1406 6.2031-2.1406z"/>
  </symbol>
  <symbol id="q" overflow="visible">
   <path d="m16.547-12.766c0.61328-0.94531 1.3477-1.6719 2.2031-2.1719 0.85156-0.5 1.7891-0.75 2.8125-0.75 1.7578 0 3.0977 0.54688 4.0156 1.6406 0.92578 1.0859 1.3906 2.6562 1.3906 4.7188v9.3281h-4.9219v-7.9844-0.35938c0.007813-0.13281 0.015625-0.32031 0.015625-0.5625 0-1.082-0.16406-1.8633-0.48438-2.3438-0.3125-0.48828-0.82422-0.73438-1.5312-0.73438-0.92969 0-1.6484 0.38672-2.1562 1.1562-0.51172 0.76172-0.77344 1.8672-0.78125 3.3125v7.5156h-4.9219v-7.9844c0-1.6953-0.14844-2.7852-0.4375-3.2656-0.29297-0.48828-0.8125-0.73438-1.5625-0.73438-0.9375 0-1.6641 0.38672-2.1719 1.1562-0.51172 0.76172-0.76562 1.8594-0.76562 3.2969v7.5312h-4.9219v-15.312h4.9219v2.2344c0.60156-0.86328 1.2891-1.5156 2.0625-1.9531 0.78125-0.4375 1.6406-0.65625 2.5781-0.65625 1.0625 0 2 0.25781 2.8125 0.76562 0.8125 0.51172 1.4258 1.2305 1.8438 2.1562z"/>
  </symbol>
  <symbol id="p" overflow="visible">
   <path d="m17.75-9.3281v9.3281h-4.9219v-7.1094c0-1.3438-0.03125-2.2656-0.09375-2.7656s-0.16797-0.86719-0.3125-1.1094c-0.1875-0.3125-0.44922-0.55469-0.78125-0.73438-0.32422-0.17578-0.69531-0.26562-1.1094-0.26562-1.0234 0-1.8242 0.39844-2.4062 1.1875-0.58594 0.78125-0.875 1.8711-0.875 3.2656v7.5312h-4.8906v-21.281h4.8906v8.2031c0.73828-0.88281 1.5195-1.5391 2.3438-1.9688 0.83203-0.42578 1.75-0.64062 2.75-0.64062 1.7695 0 3.1133 0.54688 4.0312 1.6406 0.91406 1.0859 1.375 2.6562 1.375 4.7188z"/>
  </symbol>
  <symbol id="o" overflow="visible">
   <path d="m2.5781-20.406h5.875l7.4219 14v-14h4.9844v20.406h-5.875l-7.4219-14v14h-4.9844z"/>
  </symbol>
  <symbol id="n" overflow="visible">
   <path d="m2.1875-5.9688v-9.3438h4.9219v1.5312c0 0.83594-0.007813 1.875-0.015625 3.125-0.011719 1.25-0.015625 2.0859-0.015625 2.5 0 1.2422 0.03125 2.1328 0.09375 2.6719 0.070313 0.54297 0.17969 0.93359 0.32812 1.1719 0.20703 0.32422 0.47266 0.57422 0.79688 0.75 0.32031 0.16797 0.69141 0.25 1.1094 0.25 1.0195 0 1.8203-0.39062 2.4062-1.1719 0.58203-0.78125 0.875-1.8672 0.875-3.2656v-7.5625h4.8906v15.312h-4.8906v-2.2188c-0.74219 0.89844-1.5234 1.5586-2.3438 1.9844-0.82422 0.41406-1.7344 0.625-2.7344 0.625-1.7617 0-3.1055-0.53906-4.0312-1.625-0.92969-1.082-1.3906-2.6602-1.3906-4.7344z"/>
  </symbol>
  <symbol id="m" overflow="visible">
   <path d="m2.5781-20.406h8.7344c2.5938 0 4.582 0.57812 5.9688 1.7344 1.3945 1.1484 2.0938 2.7891 2.0938 4.9219 0 2.1367-0.69922 3.7812-2.0938 4.9375-1.3867 1.1562-3.375 1.7344-5.9688 1.7344h-3.4844v7.0781h-5.25zm5.25 3.8125v5.7031h2.9219c1.0195 0 1.8047-0.25 2.3594-0.75 0.5625-0.5 0.84375-1.2031 0.84375-2.1094 0-0.91406-0.28125-1.6172-0.84375-2.1094-0.55469-0.48828-1.3398-0.73438-2.3594-0.73438z"/>
  </symbol>
  <symbol id="l" overflow="visible">
   <path d="m2.3594-15.312h4.8906v15.031c0 2.0508-0.49609 3.6172-1.4844 4.7031-0.98047 1.082-2.4062 1.625-4.2812 1.625h-2.4219v-3.2188h0.85938c0.92578 0 1.5625-0.21094 1.9062-0.625 0.35156-0.41797 0.53125-1.2461 0.53125-2.4844zm0-5.9688h4.8906v4h-4.8906z"/>
  </symbol>
  <symbol id="k" overflow="visible">
   <path d="m14.719-14.828v3.9844c-0.65625-0.45703-1.3242-0.79688-2-1.0156-0.66797-0.21875-1.3594-0.32812-2.0781-0.32812-1.3672 0-2.4336 0.40234-3.2031 1.2031-0.76172 0.79297-1.1406 1.9062-1.1406 3.3438 0 1.4297 0.37891 2.543 1.1406 3.3438 0.76953 0.79297 1.8359 1.1875 3.2031 1.1875 0.75781 0 1.4844-0.10938 2.1719-0.32812 0.6875-0.22656 1.3203-0.56641 1.9062-1.0156v4c-0.76172 0.28125-1.5391 0.48828-2.3281 0.625-0.78125 0.14453-1.5742 0.21875-2.375 0.21875-2.7617 0-4.9219-0.70703-6.4844-2.125-1.5547-1.4141-2.3281-3.3828-2.3281-5.9062 0-2.5312 0.77344-4.5039 2.3281-5.9219 1.5625-1.4141 3.7227-2.125 6.4844-2.125 0.80078 0 1.5938 0.074219 2.375 0.21875 0.78125 0.13672 1.5547 0.35156 2.3281 0.64062z"/>
  </symbol>
 </defs>
 <g>
  <path d="m585.6 189.05c0-74.93-60.742-135.66-135.66-135.66-74.93 0-135.66 60.738-135.66 135.66 0 74.93 60.738 135.67 135.66 135.67 74.93-0.003906 135.66-60.742 135.66-135.67zm-135.66 116.49c-64.23 0-116.48-52.254-116.48-116.48 0-64.23 52.254-116.48 116.48-116.48 64.23 0 116.48 52.254 116.48 116.48 0.003907 64.223-52.258 116.48-116.48 116.48zm-94.012-164.5c-7.375 14.414-11.621 30.699-11.621 48.008 0 17.309 4.2461 33.594 11.621 48.008l83.16-48.008zm5.4141-9.4023 83.164 48.016 0.003907-95.969c-34.879 1.7812-65.27 20.379-83.168 47.953zm94.02 162.77c34.883-1.7734 65.262-20.379 83.172-47.945l-83.172-48.008zm0-210.72v95.961l83.172-48.008c-17.902-27.57-48.289-46.172-83.172-47.953zm-10.852 210.72v-95.965l-83.164 48.016c17.895 27.574 48.285 46.18 83.164 47.949zm99.438-153.36-83.172 48.008 83.172 48.008c7.375-14.422 11.621-30.699 11.621-48.008 0-17.309-4.2461-33.594-11.621-48.008zm-295.25 18.504c-0.64844-1.7656-1.1094-3.0781-1.457-4.1172l-6.6992-2.6836c-2.1953-0.875-4.4688-1.3164-6.7695-1.3164-1.7695 0-3.5625 0.26172-5.4531 0.81641-5.1016 1.4375-9.3867 5.0352-11.766 9.8633l-5.2422 10.656-10.141-6.1836c-2.918-1.7734-6.2891-2.7148-9.7383-2.7148-1.8477 0-3.7031 0.27344-5.6562 0.85547-5.168 1.457-9.4062 5.0078-11.934 9.9844l-5.3086 10.457-10.02-6.0977c-2.9453-1.7969-6.3438-2.75-9.8242-2.75-1.8125 0-3.6328 0.25781-5.4648 0.77734-4.6367 1.3047-8.6055 4.418-11.184 8.7539l-6.8594 11.574c0.19531 0.59766 0.35156 1.2227 0.56641 1.8242 9.0781 44.973 27.184 84.156 50.277 117.97 2.9609-2.1406 6.5625-3.3711 10.426-3.3711 2.8516 0 5.6992 0.69922 8.2617 2.0234 17.219 8.8984 31.266 22.707 40.477 39.574 14.039-13.418 31.812-22.344 51.168-25.52 0.93359-0.15625 1.8633-0.22266 2.7812-0.22266 9.3359 0 17.023 7.4766 17.523 17.031 0.99609 19.359-3.9258 38.473-13.996 54.977 18.555 5.4141 35.062 16.223 47.359 31.219 3.2812 4 4.7109 9.1992 3.9258 14.273-0.45312 2.9336-1.7266 5.6172-3.5 7.9062 36.805 17.785 69.227 27.125 88.395 28.559 8.5742 0.64844 13.57-9.2227 8.0352-15.734-129.15-154.07-177.99-279.41-188.18-308.38zm-108.42 7.1172c2.8008-0.80078 5.6289-1.1875 8.3984-1.1875 5.5156 0 10.852 1.5195 15.469 4.3359 3.6914-7.2734 10.207-13.133 18.672-15.52 2.8555-0.85547 5.7461-1.2656 8.6016-1.2656 5.4883 0 10.812 1.5195 15.383 4.3008 3.5859-7.2695 10.098-13.125 18.559-15.52 2.8164-0.82812 5.6328-1.2305 8.3984-1.2305 3.7344 0 7.375 0.72656 10.809 2.1016-10.527-21.375-32.559-36.023-57.953-36.023-2.582 0-5.1172 0.19141-7.6289 0.48828-0.042969-3.7461 0.24609-7.4141 0.84375-10.992 4.6133-27.727 25.949-49.293 26.227-49.566 4.2617-4.1992 4.3164-11.055 0.125-15.332-4.1992-4.2734-11.066-4.3438-15.344-0.12891-1.4883 1.4609-31.207 31.293-33.426 70.578-0.21875 3.8906-0.23438 7.8516 0.14062 11.91-21.055 10.629-35.5 32.391-35.5 57.613 0 3.0391 0.21875 6.1836 0.64844 9.1172 3.8008-6.4102 9.8789-11.512 17.578-13.68zm138.34 243.04c-1.8594-0.28516-3.6797-0.23047-5.5234-0.39844 1.25-1.3672 2.6328-2.5547 3.8125-4.0156 13.742-17.07 19.941-37.777 18.895-57.973-0.19141-3.6953-3.125-6.7461-6.6797-6.7461-0.33984 0-0.68359 0.027344-1.0234 0.085938-20.133 3.3086-39.238 13.809-53.031 30.945-1.1367 1.4062-1.9609 2.9531-2.9961 4.4141-0.53906-1.7266-1.0234-3.4453-1.6797-5.1445-7.875-20.34-22.703-36.055-40.672-45.344-1.0586-0.54688-2.1797-0.80469-3.2695-0.80469-2.8164 0-5.4766 1.707-6.5586 4.5742-7.125 18.93-7.5 40.531 0.41016 60.961 0.65625 1.707 1.457 3.3047 2.2188 4.9453-1.7461-0.37891-3.3945-0.96875-5.1875-1.2539-4.4961-0.69531-8.9648-1.043-13.379-1.043-17.008 0-33.168 5.0469-46.699 13.945-3.3867 2.2227-3.7461 6.9961-1.1641 10.113 12.918 15.578 31.438 26.719 52.988 30.066 1.8594 0.28516 3.6797 0.23047 5.5312 0.39062-1.2617 1.3672-2.6367 2.5586-3.8242 4.0195-13.676 16.996-19.867 37.695-18.934 57.902 0.17969 3.707 3.1133 6.7812 6.6797 6.7812 0.32031 0 0.65625-0.027344 0.99219-0.078125 20.148-3.1992 39.25-13.715 53.109-30.918 1.1367-1.418 1.9609-2.957 2.9961-4.4141 0.53906 1.7148 1.0234 3.4336 1.6875 5.1406 7.9023 20.422 22.734 36.152 40.75 45.348 1.0352 0.54297 2.1367 0.79688 3.2305 0.79688 2.8281 0 5.4922-1.7266 6.5703-4.6133 7.0273-18.973 7.4102-40.57-0.46484-60.918-0.66016-1.7031-1.4609-3.2969-2.2188-4.9336 1.7461 0.37891 3.4062 0.96875 5.1875 1.2422 4.4688 0.69922 8.9141 1.0352 13.301 1.0352 16.973 0 33.145-5.0273 46.738-13.859 3.4062-2.2188 3.7852-6.9766 1.2148-10.121-12.836-15.637-31.359-26.766-53.008-30.129zm9.8555 33.586c-0.24609 0-0.5-0.023437-0.75-0.066406l-35.887-5.5781c-2.207 6.6523-6.668 12.465-12.953 16.184l13.082 33.801c0.96484 2.5039-0.27344 5.3203-2.7773 6.2891-0.58203 0.21875-1.1758 0.33203-1.7578 0.33203-1.9492 0-3.7852-1.1797-4.5312-3.1016l-13.074-33.77c-1.9883 0.41016-3.9805 0.66016-5.9648 0.66016-5.1445 0-10.129-1.418-14.547-3.8906l-22.734 28.246c-0.96484 1.1875-2.375 1.8086-3.7852 1.8086-1.0742 0-2.1445-0.35156-3.0469-1.0703-2.0898-1.6914-2.418-4.75-0.73437-6.8359l22.727-28.23c-2.3125-2.582-4.25-5.5547-5.5781-8.9766-1.3164-3.4141-1.8711-6.9258-1.8984-10.395l-35.824-5.5703c-2.6562-0.41016-4.4648-2.8945-4.0547-5.543 0.40234-2.6562 2.8672-4.5117 5.543-4.0547l35.879 5.582c2.2109-6.6523 6.668-12.461 12.953-16.18l-13.082-33.812c-0.96484-2.4961 0.28125-5.3125 2.7773-6.2891 2.5312-0.95703 5.3203 0.28125 6.2891 2.7773l13.074 33.797c6.0156-1.2695 12.254-0.69531 18 1.8438 0.87891 0.38672 1.6523 0.93359 2.4883 1.3984l22.766-28.281c1.7031-2.0898 4.75-2.4023 6.8359-0.73828 2.082 1.6914 2.418 4.75 0.72656 6.8359l-22.715 28.219c2.3281 2.6211 4.2656 5.6094 5.5703 8.9805v0.003906c1.3203 3.4141 1.8711 6.9219 1.8984 10.383l35.828 5.5664c2.6562 0.41016 4.4648 2.8945 4.0547 5.543-0.375 2.4219-2.4453 4.1328-4.7969 4.1328zm-56.594-33.156c-2.5742-1.1406-5.3086-1.7188-8.0547-1.7188-2.4375 0-4.8672 0.45313-7.207 1.3594-4.9688 1.9219-8.8945 5.6602-11.047 10.535-2.1523 4.8789-2.2852 10.305-0.35156 15.277 3.9688 10.254 15.559 15.379 25.805 11.395 10.246-3.9766 15.367-15.547 11.395-25.805-1.9219-4.9727-5.668-8.8867-10.539-11.043zm310.4-74.859c-6.0156-3.6836-12.801-5.4375-19.898-5.4375-19.848 0.003906-42.066 13.664-56.23 36.715-6.0703 9.8945-9.9219 20.316-11.648 30.402 1.6289-3.4609 3.4609-6.8867 5.5156-10.242 14.219-23.145 35.605-38.102 54.492-38.102 6.1602 0 11.801 1.5391 16.754 4.5859 10.656 6.5469 16.566 19.414 16.211 35.285-0.3125 13.906-5.2539 29.328-13.91 43.422-2.0234 3.2891-4.2188 6.3672-6.5 9.2969 8.1484-6.0742 15.688-14.066 21.711-23.879 19.234-31.297 16.324-68.027-6.4961-82.047zm-16.93 27.547c-3.207-1.9805-6.8867-2.918-10.836-2.918-14.438 0-32.484 12.555-44.871 32.727-15.773 25.672-16.406 53.949-1.418 63.164 3.2188 1.9766 6.8984 2.9102 10.848 2.9102 14.438 0 32.484-12.555 44.871-32.715 15.777-25.68 16.41-53.953 1.4062-63.168z"/>
  <use x="70" y="644" xlink:href="#u"/>
  <use x="90.550781" y="644" xlink:href="#c"/>
  <use x="104.359375" y="644" xlink:href="#a"/>
  <use x="123.347656" y="644" xlink:href="#j"/>
  <use x="142.242188" y="644" xlink:href="#b"/>
  <use x="155.628906" y="644" xlink:href="#a"/>
  <use x="174.617188" y="644" xlink:href="#i"/>
  <use x="204.410156" y="644" xlink:href="#h"/>
  <use x="224.453125" y="644" xlink:href="#g"/>
  <use x="252.453125" y="644" xlink:href="#f"/>
  <use x="274.148438" y="644" xlink:href="#a"/>
  <use x="293.140625" y="644" xlink:href="#t"/>
  <use x="311.390625" y="644" xlink:href="#s"/>
  <use x="320.988281" y="644" xlink:href="#e"/>
  <use x="70" y="672" xlink:href="#r"/>
  <use x="82.183594" y="672" xlink:href="#c"/>
  <use x="95.992188" y="672" xlink:href="#d"/>
  <use x="115.226562" y="672" xlink:href="#q"/>
  <use x="154.152344" y="672" xlink:href="#b"/>
  <use x="167.535156" y="672" xlink:href="#p"/>
  <use x="187.46875" y="672" xlink:href="#a"/>
  <use x="216.207031" y="672" xlink:href="#o"/>
  <use x="239.640625" y="672" xlink:href="#d"/>
  <use x="258.878906" y="672" xlink:href="#n"/>
  <use x="278.8125" y="672" xlink:href="#e"/>
  <use x="308.492188" y="672" xlink:href="#m"/>
  <use x="329.015625" y="672" xlink:href="#c"/>
  <use x="342.820312" y="672" xlink:href="#d"/>
  <use x="362.058594" y="672" xlink:href="#l"/>
  <use x="371.65625" y="672" xlink:href="#a"/>
  <use x="390.648438" y="672" xlink:href="#k"/>
  <use x="407.242188" y="672" xlink:href="#b"/>
 </g>
</svg>
